<?xml version="1.0" encoding="UTF-8" standalone="no"?>
<!DOCTYPE svg PUBLIC "-//W3C//DTD SVG 1.1//EN" "http://www.w3.org/Graphics/SVG/1.1/DTD/svg11.dtd">
<svg width="100%" height="100%" viewBox="0 0 354 87" version="1.1" xmlns="http://www.w3.org/2000/svg" xmlns:xlink="http://www.w3.org/1999/xlink" xml:space="preserve" xmlns:serif="http://www.serif.com/" style="fill-rule:evenodd;clip-rule:evenodd;stroke-linejoin:round;stroke-miterlimit:2;">
    <g id="Artboard2" transform="matrix(1,0,0,1,-249.19,-4.89781)">
        <rect x="249.19" y="4.898" width="353.457" height="86.844" style="fill:none;"/>
        <clipPath id="_clip1">
            <rect x="249.19" y="4.898" width="353.457" height="86.844"/>
        </clipPath>
        <g clip-path="url(#_clip1)">
            <g id="Artboard1" transform="matrix(1,0,0,1,254.585,5.52775)">
                <rect x="-254.395" y="-4.63" width="595.961" height="90.31" style="fill:none;"/>
                <g transform="matrix(1,0,0,1,0.605338,0.370062)">
                    <path d="M163.1,0.188C140.175,0.188 121.59,18.773 121.59,41.698C121.59,43.433 121.709,45.14 121.916,46.819L150.274,20.74L174.653,42.739L185.587,32.37L203.965,48.954C204.381,46.596 204.61,44.175 204.61,41.698C204.61,18.773 186.025,0.188 163.1,0.188Z" style="fill:white;fill-rule:nonzero;"/>
                    <path d="M178.503,46.213L198.143,63.936C199.975,61.055 201.462,57.935 202.545,54.63L185.737,39.463L178.503,46.213Z" style="fill:white;fill-rule:nonzero;"/>
                    <path d="M143.897,78.497C149.64,81.501 156.169,83.209 163.1,83.209C168.788,83.209 174.207,82.062 179.142,79.992L160.412,63.09L143.897,78.497Z" style="fill:white;fill-rule:nonzero;"/>
                    <path d="M150.202,53.877L132.759,70.013C134.737,72.132 136.933,74.041 139.313,75.708L156.563,59.616L150.202,53.877Z" style="fill:white;fill-rule:nonzero;"/>
                    <path d="M164.203,59.553L184.095,77.503C188.287,75.04 192.013,71.869 195.096,68.143L174.712,49.749L164.203,59.553Z" style="fill:white;fill-rule:nonzero;"/>
                    <path d="M150.226,46.818L160.354,56.08L170.862,46.276L150.3,27.721L123.091,52.756C124.424,57.588 126.606,62.065 129.47,66.019L150.226,46.818Z" style="fill:white;fill-rule:nonzero;"/>
                    <path d="M0.145,43.723L0.145,18.438C0.145,11.176 3.911,6.872 11.04,6.872C18.168,6.872 21.934,11.176 21.934,18.438L21.934,23.414L14.939,23.414L14.939,17.967C14.939,14.874 13.461,13.597 11.241,13.597C9.022,13.597 7.543,14.874 7.543,17.967L7.543,44.26C7.543,47.353 9.022,48.564 11.241,48.564C13.461,48.564 14.939,47.353 14.939,44.26L14.939,37.401L21.934,37.401L21.934,43.723C21.934,50.985 18.168,55.288 11.04,55.288C3.911,55.288 0.145,50.985 0.145,43.723Z" style="fill:white;fill-rule:nonzero;"/>
                    <path d="M25.763,7.544L33.228,7.544L38.136,44.529L43.045,7.544L49.837,7.544L42.709,54.616L32.891,54.616L25.763,7.544Z" style="fill:white;fill-rule:nonzero;"/>
                    <path d="M65.702,28.726C68.057,28.726 69.334,27.651 69.334,24.288L69.334,18.707C69.334,15.345 68.057,14.269 65.702,14.269L62.206,14.269L62.206,28.726L65.702,28.726ZM54.809,7.544L65.702,7.544C73.1,7.544 76.731,11.646 76.731,19.178L76.731,23.818C76.731,31.349 73.1,35.451 65.702,35.451L62.206,35.451L62.206,54.616L54.809,54.616L54.809,7.544Z" style="fill:white;fill-rule:nonzero;"/>
                    <path d="M92.194,27.718C94.951,27.718 96.633,26.508 96.633,22.742L96.633,19.111C96.633,15.748 95.489,14.269 92.867,14.269L89.505,14.269L89.505,27.718L92.194,27.718ZM82.107,7.544L93.068,7.544C100.735,7.544 104.03,11.108 104.03,18.371L104.03,21.262C104.03,26.104 102.484,29.197 99.189,30.542L99.189,30.677C102.887,31.82 104.097,35.317 104.097,40.629L104.097,48.9C104.097,51.186 104.165,52.868 104.905,54.616L97.372,54.616C96.969,53.406 96.7,52.666 96.7,48.833L96.7,40.225C96.7,35.854 95.422,34.442 92.06,34.442L89.505,34.442L89.505,54.616L82.107,54.616L82.107,7.544Z" style="fill:white;fill-rule:nonzero;"/>
                    <path d="M230.657,38.586C232.478,38.586 233.569,37.65 233.569,35.05L233.569,16.121C233.569,13.521 232.478,12.585 230.657,12.585L227.745,12.585L227.745,38.586L230.657,38.586ZM222.024,7.385L230.761,7.385C236.481,7.385 239.289,10.557 239.289,16.381L239.289,34.79C239.289,40.614 236.481,43.786 230.761,43.786L222.024,43.786L222.024,7.385Z" style="fill:white;fill-rule:nonzero;"/>
                    <path d="M242.824,7.385L258.424,7.385L258.424,12.585L248.545,12.585L248.545,22.205L256.397,22.205L256.397,27.405L248.545,27.405L248.545,38.586L258.424,38.586L258.424,43.786L242.824,43.786L242.824,7.385Z" style="fill:white;fill-rule:nonzero;"/>
                    <path d="M261.18,7.385L268.252,7.385L274.024,29.174L274.024,7.385L279.12,7.385L279.12,43.786L273.349,43.786L266.276,17.213L266.276,43.786L261.18,43.786L261.18,7.385Z" style="fill:white;fill-rule:nonzero;"/>
                    <path d="M281.563,7.385L287.336,7.385L291.132,35.986L294.928,7.385L300.181,7.385L294.668,43.786L287.075,43.786L281.563,7.385Z" style="fill:white;fill-rule:nonzero;"/>
                    <path d="M302.622,7.385L318.223,7.385L318.223,12.585L308.343,12.585L308.343,22.205L316.194,22.205L316.194,27.405L308.343,27.405L308.343,38.586L318.223,38.586L318.223,43.786L302.622,43.786L302.622,7.385Z" style="fill:white;fill-rule:nonzero;"/>
                    <path d="M328.779,22.985C330.911,22.985 332.211,22.049 332.211,19.137L332.211,16.329C332.211,13.729 331.327,12.585 329.299,12.585L326.699,12.585L326.699,22.985L328.779,22.985ZM320.979,7.385L329.455,7.385C335.384,7.385 337.932,10.141 337.932,15.757L337.932,17.993C337.932,21.737 336.735,24.129 334.188,25.169L334.188,25.273C337.048,26.157 337.983,28.861 337.983,32.97L337.983,39.366C337.983,41.134 338.035,42.434 338.607,43.786L332.783,43.786C332.472,42.85 332.263,42.278 332.263,39.314L332.263,32.658C332.263,29.277 331.275,28.185 328.675,28.185L326.699,28.185L326.699,43.786L320.979,43.786L320.979,7.385Z" style="fill:white;fill-rule:nonzero;"/>
                </g>
            </g>
        </g>
    </g>
</svg>
